<?xml version="1.0" encoding="utf-8"?>
<!-- Generator: Adobe Illustrator 19.1.0, SVG Export Plug-In . SVG Version: 6.00 Build 0)  -->
<svg version="1.1" id="Layer_1" xmlns="http://www.w3.org/2000/svg" xmlns:xlink="http://www.w3.org/1999/xlink" x="0px" y="0px"
	 width="396px" height="144px" viewBox="0 0 396 144" style="enable-background:new 0 0 396 144;" xml:space="preserve">
<style type="text/css">
	.st0{fill:none;stroke:#000000;stroke-linecap:round;stroke-miterlimit:10;}
	.st1{fill:#E07D10;}
	.st2{fill:none;stroke:#E07D10;stroke-width:2;stroke-linecap:round;stroke-miterlimit:10;}
	.st3{fill:none;stroke:#000000;stroke-linecap:round;stroke-linejoin:round;stroke-miterlimit:10;}
	.st4{fill:#FF9C39;stroke:#E07D10;stroke-linecap:round;stroke-linejoin:round;stroke-miterlimit:10;}
	.st5{fill:none;stroke:#000000;stroke-width:1.5;stroke-linecap:round;stroke-linejoin:round;stroke-miterlimit:10;}
	.st6{fill:none;stroke:#000000;stroke-width:2;stroke-linecap:round;stroke-linejoin:round;stroke-miterlimit:10;}
	.st7{fill:none;stroke:#000000;stroke-width:1.5;stroke-linecap:round;stroke-miterlimit:10;}
	.st8{fill:none;stroke:#000000;stroke-width:1.5;stroke-miterlimit:10;}
	.st9{fill:none;stroke:#000000;stroke-miterlimit:10;}
	.st10{fill:none;stroke:#000000;stroke-width:2;stroke-miterlimit:10;}
	.st11{fill:none;stroke:#000000;stroke-width:2;stroke-linecap:round;stroke-miterlimit:10;}
	.st12{fill:none;stroke:#000000;stroke-linecap:round;stroke-linejoin:round;}
	.st13{fill:none;}
	.st14{stroke:#000000;stroke-linecap:round;stroke-linejoin:round;stroke-miterlimit:10;}
	.st15{fill:none;stroke:#000000;stroke-width:1.5;stroke-linejoin:round;stroke-miterlimit:10;}
	.st16{fill:none;stroke:#000000;stroke-linejoin:round;stroke-miterlimit:10;}
	.st17{clip-path:url(#SVGID_2_);fill:none;stroke:#000000;stroke-linejoin:round;stroke-miterlimit:10;}
	.st18{clip-path:url(#SVGID_2_);fill:none;stroke:#ADADEB;stroke-linejoin:round;stroke-miterlimit:10;}
	.st19{clip-path:url(#SVGID_2_);}
	.st20{stroke:#000000;stroke-linejoin:round;stroke-miterlimit:10;}
	.st21{stroke:#000000;stroke-width:3;stroke-linejoin:round;stroke-miterlimit:10;}
	.st22{stroke:#000000;stroke-miterlimit:10;}
	.st23{fill:none;stroke:#000000;stroke-linejoin:round;}
	.st24{fill:none;stroke:#11ACCD;stroke-width:4;stroke-linecap:round;stroke-linejoin:round;}
	.st25{fill:#11ACCD;}
	.st26{fill:none;stroke:#E07D10;stroke-width:3;stroke-linecap:round;stroke-linejoin:round;}
	.st27{fill:none;stroke:#11ACCD;stroke-width:2;stroke-linecap:round;stroke-linejoin:round;}
	.st28{fill:none;stroke:#11ACCD;stroke-width:3;stroke-linecap:round;stroke-linejoin:round;}
	.st29{font-family:'KaTeX_Main-Regular';}
	.st30{font-size:21px;}
	.st31{letter-spacing:1;}
	.st32{font-size:24px;}
	.st33{font-family:'KaTeX_Main-Italic';}
	.st34{fill:#888D93;}
	.st35{stroke:#000000;stroke-linecap:round;stroke-miterlimit:10;}
	.st36{fill:#01A995;}
	.st37{fill:#66AFE9;}
	.st38{fill:none;stroke:#66AFE9;stroke-miterlimit:10;}
</style>
<g>
	<g>
		<line class="st11" x1="96" y1="85.5" x2="96" y2="65.6"/>
		<g>
			<polygon points="102,67.4 96,57 90,67.4 			"/>
		</g>
	</g>
</g>
<circle class="st10" cx="96" cy="72" r="18"/>
<line class="st0" x1="96" y1="12" x2="96" y2="54"/>
<polyline class="st3" points="96,90 96,132 336,132 360,132 360,114 "/>
<g>
	<circle class="st14" cx="192" cy="132" r="1.5"/>
	<rect x="186" y="126" class="st13" width="12" height="12"/>
</g>
<g>
	<circle class="st14" cx="276" cy="132" r="1.5"/>
	<rect x="270" y="126" class="st13" width="12" height="12"/>
</g>
<text transform="matrix(1 0 0 1 150.0001 78)" class="st29 st30">R1</text>
<text transform="matrix(1 0 0 1 234 78)" class="st29 st30">R2</text>
<text transform="matrix(1 0 0 1 318.0001 78)" class="st29 st30">R3</text>
<g>
	<circle class="st14" cx="192" cy="12" r="1.5"/>
	<rect x="186" y="6" class="st13" width="12" height="30"/>
</g>
<g>
	<circle class="st14" cx="276" cy="12" r="1.5"/>
	<rect x="270" y="6" class="st13" width="12" height="30"/>
</g>
<g>
	<line class="st3" x1="192" y1="48.6" x2="192" y2="12"/>
	<polyline class="st6" points="192,95.4 183,91.5 201,83.7 183,75.9 201,68.1 183,60.3 201,52.5 192,48.6 	"/>
	<line class="st3" x1="192" y1="132" x2="192" y2="95.4"/>
	<rect x="180" y="12" class="st13" width="54" height="120"/>
</g>
<g>
	<line class="st3" x1="276" y1="48.6" x2="276" y2="12"/>
	<polyline class="st6" points="276,95.4 267,91.5 285,83.7 267,75.9 285,68.1 267,60.3 285,52.5 276,48.6 	"/>
	<line class="st3" x1="276" y1="132" x2="276" y2="95.4"/>
	<rect x="264" y="12" class="st13" width="36" height="120"/>
</g>
<polyline class="st9" points="96,12 360,12 360,30 "/>
<g>
	<line class="st3" x1="360" y1="48.6" x2="360" y2="30"/>
	<polyline class="st6" points="360,95.4 351,91.5 369,83.7 351,75.9 369,68.1 351,60.3 369,52.5 360,48.6 	"/>
	<line class="st3" x1="360" y1="114" x2="360" y2="95.4"/>
	<rect x="348" y="30" class="st13" width="24" height="84"/>
</g>
<text transform="matrix(1 0 0 1 119.9999 77.9999)" class="st29 st30 st31">I</text>
<text transform="matrix(0.583 0 0 0.583 129.1557 84.9931)" class="st29 st30">S</text>
<g>
	<g>
		<path class="st2" d="M72,114c-3.7-8.8-6.2-25.6-6.2-45c0-15.1,1.5-28.7,3.9-38.1"/>
		<g>
			<path class="st1" d="M72,24c0.2,3.6,1,8.3,2.3,11.5l-4.8-3.7l-6.1,0.2C66.4,30.2,69.8,26.9,72,24z"/>
		</g>
	</g>
</g>
<text transform="matrix(1 0 0 1 44.664 30)" class="st1 st29 st32">+</text>
<text transform="matrix(0.583 0 0 0.583 54 95.5918)" class="st1 st29 st32">   </text>
<text transform="matrix(1 0 0 1 44.664 116.4004)" class="st1 st29 st32">−</text>
<text transform="matrix(1 0 0 1 43.1699 72)" class="st1 st33 st30">v</text>
<g>
	<g>
		<line class="st27" x1="96" y1="36" x2="96" y2="25.2"/>
		<g>
			<path class="st25" d="M96,18c1.3,3.4,3.4,7.6,5.7,10.3L96,26.2l-5.7,2.1C92.6,25.6,94.7,21.4,96,18z"/>
		</g>
	</g>
</g>
<g>
	<g>
		<line class="st27" x1="360" y1="18" x2="360" y2="28.8"/>
		<g>
			<path class="st25" d="M360,36c-1.3-3.4-3.4-7.6-5.7-10.3l5.7,2.1l5.7-2.1C363.4,28.4,361.3,32.6,360,36z"/>
		</g>
	</g>
</g>
<text transform="matrix(1 0 0 1 101.9998 29.9979)" class="st25 st33 st30 st31">i</text>
<g>
	<g>
		<line class="st27" x1="96" y1="124.5" x2="96" y2="115.2"/>
		<g>
			<path class="st25" d="M96,108c1.3,3.4,3.4,7.6,5.7,10.3l-5.7-2.1l-5.7,2.1C92.6,115.6,94.7,111.4,96,108z"/>
		</g>
	</g>
</g>
<text transform="matrix(1 0 0 1 101.9998 119.998)" class="st25 st33 st30 st31">i</text>
<text transform="matrix(1 0 0 1 365.9998 30)" class="st25 st33 st30 st31">i</text>
<text transform="matrix(0.583 0 0 0.583 374.0218 36.9931)" class="st25 st29 st30">R3</text>
<g>
	<g>
		<line class="st27" x1="276" y1="18" x2="276" y2="28.8"/>
		<g>
			<path class="st25" d="M276,36c-1.3-3.4-3.4-7.6-5.7-10.3l5.7,2.1l5.7-2.1C279.4,28.4,277.3,32.6,276,36z"/>
		</g>
	</g>
</g>
<text transform="matrix(1 0 0 1 281.9998 30)" class="st25 st33 st30 st31">i</text>
<text transform="matrix(0.583 0 0 0.583 290.0218 36.9931)" class="st25 st29 st30">R2</text>
<g>
	<g>
		<line class="st27" x1="192" y1="18" x2="192" y2="28.8"/>
		<g>
			<path class="st25" d="M192,36c-1.3-3.4-3.4-7.6-5.7-10.3l5.7,2.1l5.7-2.1C195.4,28.4,193.3,32.6,192,36z"/>
		</g>
	</g>
</g>
<text transform="matrix(1 0 0 1 197.9998 30)" class="st25 st33 st30 st31">i</text>
<text transform="matrix(0.583 0 0 0.583 206.0218 36.9931)" class="st25 st29 st30">R1</text>
</svg>
